<?xml version="1.0" encoding="UTF-8"?>
<svg width="108px" height="52px" viewBox="0 0 108 52" version="1.1" xmlns="http://www.w3.org/2000/svg" xmlns:xlink="http://www.w3.org/1999/xlink">
    <!-- Generator: Sketch 51.2 (57519) - http://www.bohemiancoding.com/sketch -->
    <title>svg-agility-logo</title>
    <desc>Created with Sketch.</desc>
    <defs></defs>
    <g id="01---Portfolio" stroke="none" stroke-width="1" fill="none" fill-rule="evenodd">
        <g id="Home" transform="translate(-1043.000000, -3634.000000)" fill="#FFFFFF" fill-rule="nonzero">
            <g id="section-companies" transform="translate(2.000000, 3534.000000)">
                <g id="Stacked-Group-2" transform="translate(290.000000, 100.000000)">
                    <g id="svg-agility-logo" transform="translate(751.000000, 0.000000)">
                        <path d="M14.8202662,21.7682759 L11.4569752,29.9598616 L18.310823,29.9598616 L14.8202662,21.7682759 Z M20.1490698,35.2915701 L9.51985139,35.2915701 L7.53578227,39.6737586 L0,39.6737586 L11.2681294,14.9790701 L18.4448493,14.9790701 L29.6767555,39.6737586 L22.0694324,39.6737586 L20.1490698,35.2915701 Z" id="a"></path>
                        <path d="M37.6404242,34.1285862 C35.7011251,34.1285862 34.1983153,32.7765862 34.1983153,30.6835862 C34.1983153,28.3377586 35.7011251,27.0597241 37.6404242,27.0597241 C39.5797233,27.0597241 40.9765802,28.695931 40.9765802,30.6835862 C40.9765802,33.0294138 39.3986073,34.1285862 37.6404242,34.1285862 Z M44.6120302,36.2027586 C46.351649,34.7642414 47.3305808,32.7765862 47.3681624,30.7512759 C47.3740486,30.6217241 47.3618233,30.4074483 47.3618233,30.3644138 C47.3183555,28.8743449 46.8211922,27.2982069 46.0034536,26.5742414 L47.0276644,26.5742414 L46.9860077,21.9863447 L39.7228049,21.9863447 L37.6281988,22.0060688 C33.3751433,22.0060688 29.8080645,23.5246207 28.4053214,27.0247586 C28.0059608,27.9571724 27.7786603,29.0948965 27.7786603,30.1443104 C27.7786603,30.1752414 27.7736795,30.5127931 27.7736795,30.6176896 C27.7736795,36.0507931 31.4100352,40.0408965 37.3651279,40.0408965 C39.7721591,40.0408965 40.713962,41.3906551 40.713962,42.6686896 C40.713962,44.3725862 38.384358,45.1449655 36.6633036,45.1449655 C33.5829739,45.1449655 31.6319022,45.0502627 30.210142,41.4295385 L22.6028189,41.4295385 C24.7635323,48.6709868 28.6905791,51.5517241 37.229291,51.5517241 C42.4798426,51.5517241 48.4344826,48.3608965 48.4344826,43.3047931 C48.4344826,42.3477241 48.1225103,37.9806207 44.1501845,36.5855862 C44.3063971,36.4618621 44.4621568,36.3385862 44.6120302,36.2027586 Z" id="g"></path>
                        <polygon id="i-1" points="49.5737705 39.6610169 54.8852459 39.6610169 54.8852459 22.0338983 49.5737705 22.0338983"></polygon>
                        <polygon id="dot-1" points="49.5737705 16.7457627 54.859187 16.7457627 54.859187 11.4576271 49.5737705 11.4576271"></polygon>
                        <polygon id="l" points="58.4262295 39.6610169 63.7377049 39.6610169 63.7377049 14.1016949 58.4262295 14.1016949"></polygon>
                        <polygon id="i-2" points="67.2786885 39.6610169 72.5901639 39.6610169 72.5901639 22.0338983 67.2786885 22.0338983"></polygon>
                        <polygon id="dot-2" points="67.2786885 5.28813559 72.564105 5.28813559 72.564105 0 67.2786885 0"></polygon>
                        <path d="M83.2236397,22.0338983 L87.6916464,22.0338983 L87.6916464,26.440678 L83.1869637,26.440678 L83.1869637,32.7322069 C83.1869637,34.6212414 84.25102,35.1300345 85.2417243,35.1300345 C85.8661215,35.1300345 86.8568258,34.9852414 87.4445471,34.6943104 L88.6553073,39.0542414 C87.3340663,39.5630345 86.2695573,39.7808965 84.8387412,39.8539655 C80.9116944,40.035069 77.9139584,38.3280345 77.9139584,32.7322069 L77.9139584,26.440678 L74.3606557,26.440678 L74.3606557,22.0338983 L77.9139584,22.0338983 L77.9139584,16.614 L83.2236397,16.5992069 L83.2236397,22.0338983 Z" id="t"></path>
                        <path d="M91.9484628,37.4736207 C93.966094,39.9996551 97.0853642,40.161931 98.4183772,40.161931 C100.534265,40.161931 101.543986,41.2126896 101.543986,42.336069 C101.543986,43.8337586 99.5897443,44.6697931 97.8772937,44.6697931 C95.1696097,44.6697931 93.379731,44.6060392 92.1300312,41.4237288 L85.8688525,41.4237288 C87.1579453,47.2638667 90.5842068,50.2252759 98.0887462,50.2252759 C102.703128,50.2252759 107.318407,47.4352069 107.318407,42.9914483 C107.318407,42.2638965 107.535746,39.8723449 105.227423,37.7591724 C106.393357,36.4062759 107.116915,34.3105862 107.116915,31.1439655 L107.116915,22.0338983 L101.827485,22.0338983 L101.827485,31.1076551 C101.827485,33.6942069 100.899496,35.0847586 98.6830896,35.2524138 C96.4671359,35.0847586 95.6128913,33.6942069 95.6128913,31.1076551 L95.6128913,22.0338983 L90.2907983,22.0338983 L90.2907983,31.1439655 C90.2907983,33.8981724 90.8400331,35.8387586 91.7487823,37.1903104" id="y"></path>
                    </g>
                </g>
            </g>
        </g>
    </g>
</svg>