<?xml version="1.0" encoding="UTF-8"?>
<svg width="92px" height="48px" viewBox="0 0 92 48" version="1.1" xmlns="http://www.w3.org/2000/svg" xmlns:xlink="http://www.w3.org/1999/xlink">
    <!-- Generator: Sketch 51.2 (57519) - http://www.bohemiancoding.com/sketch -->
    <title>Cisco_logo</title>
    <desc>Created with Sketch.</desc>
    <defs></defs>
    <g id="01---Portfolio" stroke="none" stroke-width="1" fill="none" fill-rule="evenodd">
        <g id="Home" transform="translate(-292.000000, -3636.000000)" fill="#FFFFFF" fill-rule="nonzero">
            <g id="section-companies" transform="translate(2.000000, 3534.000000)">
                <g id="Stacked-Group-2" transform="translate(290.000000, 100.000000)">
                    <g id="Cisco_logo" transform="translate(0.000000, 2.000000)">
                        <polygon id="path268" points="30.0934579 31.7142857 25.7943925 31.7142857 25.7943925 47.1428571 30.0934579 47.1428571"></polygon>
                        <path d="M62.7663551,36.5000606 C62.6061258,36.4170921 61.3255532,35.6603187 59.4204648,35.6603187 C56.8403947,35.6603187 55.0551628,37.446656 55.0551628,39.8552572 C55.0551628,42.1922038 56.7659574,44.053967 59.4204648,44.053967 C61.2927503,44.053967 62.594771,43.3135359 62.7663551,43.2192535 L62.7663551,47.4405911 C62.2717891,47.580129 60.9129943,48 59.1340707,48 C54.6564821,48 50.728972,44.9226223 50.728972,39.8552572 C50.728972,35.1587363 54.2868192,31.7142857 59.1340707,31.7142857 C61.0088795,31.7142857 62.3916457,32.1680984 62.7663551,32.2787231 L62.7663551,36.5000606 Z" id="path284"></path>
                        <path d="M20.635514,36.5000606 C20.4752847,36.4170921 19.194712,35.6603187 17.2896236,35.6603187 C14.7095536,35.6603187 12.9243217,37.446656 12.9243217,39.8552572 C12.9243217,42.1922038 14.6351163,44.053967 17.2896236,44.053967 C19.1619092,44.053967 20.4639299,43.3135359 20.635514,43.2192535 L20.635514,47.4405911 C20.140948,47.580129 18.7821532,48 17.0032295,48 C12.5256409,48 8.59813084,44.9226223 8.59813084,39.8552572 C8.59813084,35.1587363 12.1559781,31.7142857 17.0032295,31.7142857 C18.8780384,31.7142857 20.2608046,32.1680984 20.635514,32.2787231 L20.635514,36.5000606 Z" id="path284"></path>
                        <path d="M75.6609495,35.7194023 C73.2242269,35.7194023 71.4145734,37.5723659 71.4145734,39.8552572 C71.4145734,42.1431769 73.2242269,43.9948834 75.6609495,43.9948834 C78.09507,43.9948834 79.9099274,42.1431769 79.9099274,39.8552572 C79.9099274,37.5723659 78.09507,35.7194023 75.6609495,35.7194023 M84.2616822,39.8552572 C84.2616822,44.3544136 80.6670937,48 75.6609495,48 C70.6548052,48 67.0654206,44.3544136 67.0654206,39.8552572 C67.0654206,35.3636434 70.6548052,31.7142857 75.6609495,31.7142857 C80.6670937,31.7142857 84.2616822,35.3636434 84.2616822,39.8552572" id="path288"></path>
                        <path d="M45.2886765,35.5711309 C45.2277244,35.5522803 43.5042077,35.0910674 42.088045,35.0910674 C40.4475268,35.0910674 39.5552924,35.6239128 39.5552924,36.3791959 C39.5552924,37.3368095 40.7587714,37.6710946 41.4318377,37.8771951 L42.5613961,38.225304 C45.2186465,39.0446794 46.4299065,40.8078445 46.4299065,42.7230717 C46.4299065,46.6729135 42.8454067,48 39.7122116,48 C37.5347965,48 35.4948478,47.6116764 35.2938357,47.5702049 L35.2938357,43.9521348 C35.6543607,44.0401045 37.3713931,44.5365052 39.1597525,44.5365052 C41.1971075,44.5365052 42.1334348,43.959675 42.1334348,43.0686671 C42.1334348,42.2719125 41.3229021,41.8119564 40.3074668,41.5028056 C40.059768,41.4223761 39.6875714,41.3092721 39.4333883,41.2288426 C37.1535219,40.5301115 35.2523364,39.2319293 35.2523364,36.6292814 C35.2523364,33.6885783 37.5244217,31.7142857 41.2982619,31.7142857 C43.2915239,31.7142857 45.1667724,32.1830388 45.2886765,32.2144566 L45.2886765,35.5711309 Z" id="path292"></path>
                        <path d="M4.29906542,14.735184 C4.29906542,13.6981107 3.33366126,12.8571429 2.15021837,12.8571429 C0.966775477,12.8571429 0,13.6981107 0,14.735184 L0,18.6861688 C0,19.7292576 0.966775477,20.5714286 2.15021837,20.5714286 C3.33366126,20.5714286 4.29906542,19.7292576 4.29906542,18.6861688 L4.29906542,14.735184 Z" id="path296"></path>
                        <path d="M15.4766355,9.71311344 C15.4766355,8.61075292 14.5112313,7.71428571 13.3277885,7.71428571 C12.1429743,7.71428571 11.1775701,8.61075292 11.1775701,9.71311344 L11.1775701,19.4259072 C11.1775701,20.5346619 12.1429743,21.4285714 13.3277885,21.4285714 C14.5112313,21.4285714 15.4766355,20.5346619 15.4766355,19.4259072 L15.4766355,9.71311344 Z" id="path300"></path>
                        <path d="M26.6542056,1.96671346 C26.6542056,0.881369669 25.6888014,0 24.5053586,0 C23.3205444,0 22.3551402,0.881369669 22.3551402,1.96671346 L22.3551402,22.8841339 C22.3551402,23.9757732 23.3205444,24.8571429 24.5053586,24.8571429 C25.6888014,24.8571429 26.6542056,23.9757732 26.6542056,22.8841339 L26.6542056,1.96671346 Z" id="path304"></path>
                        <path d="M36.9719626,9.71311344 C36.9719626,8.61075292 36.0065585,7.71428571 34.8231156,7.71428571 C33.6383014,7.71428571 32.6728972,8.61075292 32.6728972,9.71311344 L32.6728972,19.4259072 C32.6728972,20.5346619 33.6383014,21.4285714 34.8231156,21.4285714 C36.0065585,21.4285714 36.9719626,20.5346619 36.9719626,19.4259072 L36.9719626,9.71311344 Z" id="path308"></path>
                        <path d="M48.1495327,14.735184 C48.1495327,13.6981107 47.1879178,12.8571429 46.0061907,12.8571429 C44.8189607,12.8571429 43.8504673,13.6981107 43.8504673,14.735184 L43.8504673,18.6861688 C43.8504673,19.7292576 44.8189607,20.5714286 46.0061907,20.5714286 C47.1879178,20.5714286 48.1495327,19.7292576 48.1495327,18.6861688 L48.1495327,14.735184 Z" id="path312"></path>
                        <path d="M48.1495327,14.735184 C48.1495327,13.6981107 47.1841285,12.8571429 46.0006857,12.8571429 C44.8172428,12.8571429 43.8504673,13.6981107 43.8504673,14.735184 L43.8504673,18.6861688 C43.8504673,19.7292576 44.8172428,20.5714286 46.0006857,20.5714286 C47.1841285,20.5714286 48.1495327,19.7292576 48.1495327,18.6861688 L48.1495327,14.735184 Z" id="path296"></path>
                        <path d="M59.3271028,9.71311344 C59.3271028,8.61075292 58.3616986,7.71428571 57.1782557,7.71428571 C55.9934415,7.71428571 55.0280374,8.61075292 55.0280374,9.71311344 L55.0280374,19.4259072 C55.0280374,20.5346619 55.9934415,21.4285714 57.1782557,21.4285714 C58.3616986,21.4285714 59.3271028,20.5346619 59.3271028,19.4259072 L59.3271028,9.71311344 Z" id="path300"></path>
                        <path d="M70.5046729,1.96671346 C70.5046729,0.881369669 69.5392687,0 68.3558258,0 C67.1710116,0 66.2056075,0.881369669 66.2056075,1.96671346 L66.2056075,22.8841339 C66.2056075,23.9757732 67.1710116,24.8571429 68.3558258,24.8571429 C69.5392687,24.8571429 70.5046729,23.9757732 70.5046729,22.8841339 L70.5046729,1.96671346 Z" id="path304"></path>
                        <path d="M81.682243,9.71311344 C81.682243,8.61075292 80.7168388,7.71428571 79.5333959,7.71428571 C78.3485817,7.71428571 77.3831776,8.61075292 77.3831776,9.71311344 L77.3831776,19.4259072 C77.3831776,20.5346619 78.3485817,21.4285714 79.5333959,21.4285714 C80.7168388,21.4285714 81.682243,20.5346619 81.682243,19.4259072 L81.682243,9.71311344 Z" id="path308"></path>
                        <path d="M92,14.735184 C92,13.6981107 91.038385,12.8571429 89.8566579,12.8571429 C88.669428,12.8571429 87.7009346,13.6981107 87.7009346,14.735184 L87.7009346,18.6861688 C87.7009346,19.7292576 88.669428,20.5714286 89.8566579,20.5714286 C91.038385,20.5714286 92,19.7292576 92,18.6861688 L92,14.735184 Z" id="path312"></path>
                        <polygon id="path332" points="89.4205607 45.4285714 89.4205607 45.6325787 88.7087274 45.6325787 88.7087274 47.1428571 88.416595 47.1428571 88.416595 45.6325787 87.7009346 45.6325787 87.7009346 45.4285714"></polygon>
                        <polygon id="path336" points="89.4205607 45.4285714 89.9688252 45.4285714 90.7217344 46.8347645 90.733952 46.8347645 91.4624259 45.4285714 92 45.4285714 92 47.1428571 91.6411082 47.1428571 91.6411082 45.7377049 91.6288906 45.7377049 90.8652911 47.1428571 90.5338889 47.1428571 89.7886157 45.7377049 89.7718165 45.7377049 89.7718165 47.1428571 89.4205607 47.1428571"></polygon>
                    </g>
                </g>
            </g>
        </g>
    </g>
</svg>