<?xml version="1.0" encoding="UTF-8"?>
<svg width="124px" height="48px" viewBox="0 0 124 48" version="1.1" xmlns="http://www.w3.org/2000/svg" xmlns:xlink="http://www.w3.org/1999/xlink">
    <!-- Generator: Sketch 51.2 (57519) - http://www.bohemiancoding.com/sketch -->
    <title>FW-default</title>
    <desc>Created with Sketch.</desc>
    <defs></defs>
    <g id="01---Portfolio" stroke="none" stroke-width="1" fill="none" fill-rule="evenodd">
        <g id="Home" transform="translate(-846.000000, -3670.000000)" fill="#FFFFFF" fill-rule="nonzero">
            <g id="FW-default" transform="translate(846.000000, 3670.000000)">
                <path d="M0.615384615,0 L0.615384615,37.2923077 C4.92307692,36.8615385 9.29230769,36.6769231 13.6615385,36.7384615 C18.2769231,36.7384615 24.1230769,36.9230769 31.0769231,37.4153846 C59.0769231,39.3846154 66.7692308,43.3846154 90.9538462,44.0615385 C94.4,44.1230769 97.4769231,44.1846154 100.246154,44.1846154 C119.630769,44.1846154 123.692308,41.7230769 123.692308,41.7230769 L123.692308,0 L0.615384615,0 Z" id="Shape" opacity="0.2"></path>
                <path d="M18.4,11.4461538 L17.4769231,5.66153846 L5.90769231,5.66153846 L5.90769231,27.2 L11.8153846,27.2 L11.8153846,19.3230769 L16.1230769,19.3230769 L16.1230769,13.5384615 L11.6923077,13.5384615 L11.6923077,11.4461538 L18.4,11.4461538 Z M20.6153846,27.2 L21.5384615,24.8 L28.5538462,24.8 L29.3538462,27.2 L35.3846154,27.2 L28,5.72307692 L21.8461538,5.72307692 L14.6461538,27.2 L20.6153846,27.2 Z M24.9230769,13.9076923 L26.8923077,19.5692308 L23.0153846,19.5692308 L24.9230769,13.9076923 Z M88.5538462,11.4461538 L87.5076923,5.72307692 L76.1230769,5.72307692 L76.1230769,27.2 L87.7538462,27.2 L89.2307692,21.1692308 L81.9076923,21.1692308 L81.9076923,19.3846154 L86.2153846,19.3846154 L86.2153846,13.5384615 L81.9076923,13.5384615 L81.9076923,11.4461538 L88.5538462,11.4461538 Z M64.0615385,27.3230769 L68.4307692,18.8923077 L69.7846154,27.2 L75.7538462,27.2 L72.5538462,5.72307692 L68.0615385,5.72307692 L64,13.9076923 L59.7538462,5.72307692 L55.3846154,5.72307692 L52.4307692,27.2 L58.4,27.2 L59.5692308,18.8307692 L64.0615385,27.3230769 Z M114.707692,10.9538462 C115.630769,10.9538462 116.492308,11.2 117.230769,11.6307692 L117.230769,6.64615385 C117.230769,6.27692308 115.569231,5.72307692 113.476923,5.72307692 C109.476923,5.72307692 106.276923,8.12307692 106.215385,12 C106.153846,17.4769231 111.138462,18.1538462 111.076923,20.5538462 C111.076923,21.4769231 109.846154,21.8461538 108.984615,21.9076923 C108.123077,21.8461538 107.323077,21.7230769 106.523077,21.5384615 L106.830769,27.0153846 C107.630769,27.1384615 108.492308,27.2615385 109.292308,27.2615385 C113.415385,27.1384615 117.784615,26.0923077 117.784615,20.8 C117.784615,14.8307692 112.738462,15.2 112.676923,12.4923077 C112.738462,11.3846154 113.784615,10.8923077 114.707692,10.9538462 Z M51.0153846,12.6153846 C51.0153846,8.06153846 47.6923077,5.72307692 43.6923077,5.72307692 L35.6923077,5.72307692 L35.6923077,27.2615385 L41.8461538,27.2615385 L41.8461538,19.0769231 L45.9076923,27.2615385 L52.3076923,27.2615385 L48.1230769,17.9692308 C48.1230769,17.9076923 51.0153846,16.5538462 51.0153846,12.6153846 Z M42.5846154,15.8153846 L41.7230769,15.8153846 L41.7230769,10.6461538 L42.5230769,10.6461538 C43.9384615,10.6461538 45.0461538,11.8153846 45.0461538,13.2307692 C45.0461538,14.6461538 43.9384615,15.7538462 42.5846154,15.8153846 Z M105.292308,12.6153846 C105.292308,8.06153846 101.969231,5.72307692 97.9692308,5.72307692 L89.9692308,5.72307692 L89.9692308,27.2615385 L96.1230769,27.2615385 L96.1230769,19.0769231 L100.184615,27.2615385 L106.584615,27.2615385 L102.4,17.9692308 C102.4,17.9076923 105.292308,16.5538462 105.292308,12.6153846 Z M96.8,15.8153846 L96,15.8153846 L96,10.6461538 L96.8,10.6461538 C98.2153846,10.6461538 99.3230769,11.8153846 99.3230769,13.2307692 C99.3846154,14.6461538 98.2153846,15.8153846 96.8,15.8153846 Z" id="Shape"></path>
                <path d="M85.2307692,30.0307692 L87.0153846,30.0307692 L87.3846154,32.9230769 L88.7384615,30.0307692 L90.0923077,32.9230769 L90.4615385,30.0307692 L92.2461538,30.0307692 L91.3230769,36.9846154 L89.8461538,36.9846154 L88.6153846,34.2769231 L87.3846154,36.9846154 L86.1538462,36.9846154 L85.2307692,30.0307692 Z M93.0461538,30.0307692 L96.7384615,30.0307692 L96.9846154,31.8769231 L94.7692308,31.8769231 L94.7692308,32.6153846 L96.1846154,32.6153846 L96.1846154,34.4615385 L94.7692308,34.4615385 L94.7692308,35.2 L97.1692308,35.2 L96.6769231,37.0461538 L92.9230769,37.0461538 L92.9230769,30.0307692 L93.0461538,30.0307692 Z M97.8461538,30.0307692 L101.538462,30.0307692 L101.784615,31.8769231 L99.6923077,31.8769231 L99.6923077,32.6153846 L101.107692,32.6153846 L101.107692,34.4615385 L99.6923077,34.4615385 L99.6923077,35.2 L102.092308,35.2 L101.6,37.0461538 L97.8461538,37.0461538 L97.8461538,30.0307692 Z M102.646154,30.0307692 L104.430769,30.0307692 L104.430769,33.1076923 L105.846154,30.0307692 L107.876923,30.0307692 L106.461538,33.2307692 L108,36.9230769 L105.969231,36.9230769 L104.492308,33.2923077 L104.492308,36.9230769 L102.707692,36.9230769 L102.646154,30.0307692 Z M108.553846,30.0307692 L110.338462,30.0307692 L110.338462,35.1384615 L112.738462,35.1384615 L112.246154,36.9846154 L108.492308,36.9846154 L108.553846,30.0307692 Z M112.246154,30.0307692 L114.276923,30.0307692 L115.076923,31.7538462 L115.876923,30.0307692 L117.907692,30.0307692 L115.938462,33.9076923 L115.938462,36.9846154 L114.153846,36.9846154 L114.153846,33.9076923 L112.246154,30.0307692 Z" id="Shape"></path>
                <path d="M30.9538462,39.7538462 C44,40.6769231 52.4923077,42.0307692 60.6153846,43.3230769 C69.5384615,44.7384615 77.9692308,46.0923077 90.8923077,46.4 C94.2153846,46.4615385 97.3538462,46.5230769 100.184615,46.5230769 C105.969231,46.5846154 111.753846,46.3384615 117.476923,45.6615385 C122.523077,44.7384615 123.507692,43.7538462 123.630769,43.5692308 C121.415385,44.5538462 115.323077,45.9076923 100.184615,45.9076923 C97.2923077,45.9076923 94.1538462,45.8461538 90.8923077,45.7846154 C77.9692308,45.4153846 69.5384615,44.1230769 60.6153846,42.7076923 C52.4307692,41.4153846 44,40.0615385 30.9538462,39.1384615 C24.8615385,38.7076923 19.0153846,38.4615385 13.6,38.4615385 C9.23076923,38.4 4.92307692,38.5846154 0.553846154,39.0153846 L0.553846154,39.6923077 C4.86153846,39.2615385 9.23076923,39.0769231 13.6,39.1384615 C19.0153846,39.1384615 24.8615385,39.3230769 30.9538462,39.7538462 Z" id="Shape"></path>
                <path d="M91.6923077,46.8923077 C67.5076923,47.2615385 59.6307692,43.5692308 31.6307692,42.8307692 C11.5692308,42.3384615 0.615384615,43.3846154 0.615384615,43.3846154 L0.615384615,44.0615385 C0.615384615,44.0615385 11.5692308,43.0153846 31.6307692,43.5076923 C59.6923077,44.2461538 67.5076923,47.9384615 91.6923077,47.5692308 C120.246154,47.0769231 123.446154,43.9384615 123.630769,43.5692308 C122.584615,44.0615385 120.738462,44.5538462 117.476923,44.9846154 C112.984615,45.8461538 105.169231,46.7076923 91.6923077,46.8923077 Z" id="Shape"></path>
                <path d="M90.8923077,46.0923077 C77.9692308,45.7230769 69.5384615,44.4307692 60.6153846,43.0153846 C52.4307692,41.7230769 44,40.3692308 30.9538462,39.4461538 C24.8615385,39.0153846 19.0153846,38.7692308 13.6,38.7692308 C9.23076923,38.7076923 4.92307692,38.8923077 0.553846154,39.3230769 L0.553846154,43.7538462 C0.553846154,43.7538462 11.5076923,42.7076923 31.5692308,43.2 C59.6307692,43.9384615 67.4461538,47.6307692 91.6307692,47.2615385 C120.184615,46.7692308 123.384615,43.9384615 123.569231,43.6307692 C121.353846,44.6153846 115.261538,46.2153846 100.123077,46.2153846 C97.3538462,46.2153846 94.2153846,46.1538462 90.8923077,46.0923077 Z" id="Shape"></path>
            </g>
        </g>
    </g>
</svg>